<svg width="42" height="42" viewBox="0 0 42 42" fill="none" xmlns="http://www.w3.org/2000/svg">
<g clip-path="url(#clip0_443_452)">
<path d="M41.6576 11.6482C41.5372 11.4773 41.3775 11.3377 41.1919 11.2413C41.0064 11.145 40.8004 11.0946 40.5913 11.0944H12.7361L10.6275 3.82319C9.80067 0.959973 7.83581 0.650879 7.02994 0.650879H1.40785C0.687242 0.650879 0.104492 1.23429 0.104492 1.95419C0.104492 2.6741 0.687898 3.25746 1.4078 3.25746H7.02924C7.20709 3.25746 7.7498 3.25746 8.11997 4.53649L15.3735 31.194C15.531 31.7564 16.0435 32.1449 16.6282 32.1449H34.3456C34.8956 32.1449 35.3865 31.8004 35.5722 31.2826L41.8171 12.8387C41.9608 12.439 41.9011 11.9941 41.6576 11.6482H41.6576ZM33.4285 29.539H17.6175L13.4687 13.7017H38.7382L33.4285 29.539ZM30.8435 34.7864C29.031 34.7864 27.5623 36.2551 27.5623 38.0676C27.5623 39.8802 29.031 41.3489 30.8435 41.3489C32.6561 41.3489 34.1248 39.8802 34.1248 38.0676C34.1248 36.2551 32.6561 34.7864 30.8435 34.7864ZM19.031 34.7864C17.2185 34.7864 15.7498 36.2551 15.7498 38.0676C15.7498 39.8802 17.2185 41.3489 19.031 41.3489C20.8436 41.3489 22.3123 39.8802 22.3123 38.0676C22.3123 36.2551 20.8436 34.7864 19.031 34.7864Z" fill="black"/>
</g>
<defs>
<clipPath id="clip0_443_452">
<rect width="42" height="42" fill="white"/>
</clipPath>
</defs>
</svg>
