<svg width="60" height="59" viewBox="0 0 60 59" fill="none" xmlns="http://www.w3.org/2000/svg">
<path d="M59.6604 16.0733C59.4875 15.8278 59.2583 15.6274 58.9918 15.4891C58.7254 15.3507 58.4296 15.2784 58.1294 15.2782H18.136L15.1086 4.83838C13.9214 0.727477 11.1003 0.283691 9.9433 0.283691H1.87131C0.836691 0.283691 0 1.12132 0 2.15494C0 3.18855 0.837633 4.02613 1.87125 4.02613H9.9423C10.1976 4.02613 10.9769 4.02613 11.5083 5.86251L21.9227 44.1364C22.1488 44.9439 22.8847 45.5016 23.7241 45.5016H49.1622C49.9518 45.5016 50.6565 45.0069 50.9232 44.2635L59.8894 17.7825C60.0957 17.2087 60.01 16.5698 59.6604 16.0733H59.6604ZM47.8453 41.7602H25.1445L19.1878 19.0216H55.4688L47.8453 41.7602ZM44.134 49.2942C41.5315 49.2942 39.4229 51.4028 39.4229 54.0053C39.4229 56.6077 41.5315 58.7164 44.134 58.7164C46.7364 58.7164 48.8451 56.6077 48.8451 54.0053C48.8451 51.4028 46.7364 49.2942 44.134 49.2942ZM27.174 49.2942C24.5716 49.2942 22.4629 51.4028 22.4629 54.0053C22.4629 56.6077 24.5716 58.7164 27.174 58.7164C29.7764 58.7164 31.8851 56.6077 31.8851 54.0053C31.8851 51.4028 29.7764 49.2942 27.174 49.2942Z" fill="black"/>
</svg>
