<svg width="36" height="36" viewBox="0 0 36 36" fill="none" xmlns="http://www.w3.org/2000/svg">
<path d="M16.4322 0L19.9854 0.009C21.3858 0.1782 22.6134 0.837 23.625 1.9494C24.4512 2.8566 24.885 3.9114 24.9102 5.0598H34.7652C35.0943 5.0617 35.4092 5.19414 35.6407 5.42802C35.8722 5.6619 36.0014 5.97811 36 6.3072C36.0007 6.47006 35.9693 6.63147 35.9076 6.78221C35.846 6.93295 35.7552 7.07007 35.6406 7.18574C35.5259 7.3014 35.3896 7.39335 35.2394 7.45633C35.0892 7.51931 34.9281 7.55209 34.7652 7.5528L31.4604 7.551V28.4796C31.4604 33.057 29.7522 36 25.9866 36H9.7542C5.9886 36 4.3074 33.0732 4.3074 28.4796V7.551H1.2348C0.906504 7.54957 0.592168 7.41803 0.3607 7.18521C0.129233 6.95239 -0.000478273 6.6373 1.32524e-06 6.309C1.32524e-06 5.6196 0.552601 5.0634 1.2348 5.0634H11.0808C11.106 4.1382 11.4498 3.2004 12.078 2.2734C13.014 0.891 14.4756 0.1332 16.4322 0ZM28.9908 7.551H6.7752V28.4796C6.7752 31.878 7.7112 33.5088 9.7542 33.5088H25.9866C28.0368 33.5088 28.9926 31.8636 28.9926 28.4796L28.9908 7.551ZM12.0888 11.412C12.7692 11.412 13.3218 11.97 13.3218 12.6576V27.1476C13.3225 27.3105 13.2911 27.4719 13.2295 27.6226C13.1678 27.7733 13.077 27.9105 12.9624 28.0261C12.8477 28.1418 12.7114 28.2337 12.5612 28.2967C12.411 28.3597 12.2499 28.3925 12.087 28.3932C11.7584 28.3913 11.444 28.259 11.2128 28.0255C10.9816 27.7919 10.8526 27.4762 10.854 27.1476V12.6576C10.854 11.97 11.4084 11.412 12.0888 11.412ZM16.9956 11.412C17.6796 11.412 18.2304 11.97 18.2304 12.6576V27.1476C18.2311 27.3105 18.1997 27.4719 18.1381 27.6226C18.0764 27.7733 17.9856 27.9105 17.871 28.0261C17.7563 28.1418 17.62 28.2337 17.4698 28.2967C17.3196 28.3597 17.1585 28.3925 16.9956 28.3932C16.667 28.3913 16.3526 28.259 16.1214 28.0255C15.8902 27.7919 15.7612 27.4762 15.7626 27.1476V12.6576C15.7626 11.97 16.3152 11.412 16.9956 11.412ZM21.906 11.412C22.5864 11.412 23.139 11.97 23.139 12.6576V27.1476C23.1404 27.4762 23.0114 27.7919 22.7802 28.0255C22.549 28.259 22.2346 28.3913 21.906 28.3932C21.7431 28.3925 21.582 28.3597 21.4318 28.2967C21.2816 28.2337 21.1453 28.1418 21.0306 28.0261C20.916 27.9105 20.8252 27.7733 20.7635 27.6226C20.7019 27.4719 20.6705 27.3105 20.6712 27.1476V12.6576C20.6702 12.3288 20.7997 12.0131 21.0311 11.7796C21.2626 11.5461 21.5772 11.4139 21.906 11.412ZM16.5168 2.4876C15.3612 2.5686 14.5998 2.9628 14.1156 3.6792C13.7592 4.203 13.581 4.6566 13.5522 5.0616L22.4406 5.0598C22.4154 4.536 22.2084 4.0752 21.807 3.6342C21.1842 2.9502 20.493 2.5794 19.8396 2.4912L16.5168 2.4876Z" fill="black"/>
</svg>
