<svg width="50" height="50" viewBox="0 0 50 50" fill="none" xmlns="http://www.w3.org/2000/svg">
<path d="M22.8225 0L27.7575 0.0125C29.7025 0.2475 31.4075 1.1625 32.8125 2.7075C33.96 3.9675 34.5625 5.4325 34.5975 7.0275H48.285C48.7421 7.03015 49.1794 7.21408 49.501 7.53892C49.8225 7.86376 50.002 8.30293 50 8.76C50.001 8.9862 49.9574 9.21038 49.8718 9.41975C49.7861 9.62911 49.6601 9.81955 49.5008 9.98019C49.3415 10.1408 49.1522 10.2685 48.9436 10.356C48.735 10.4435 48.5112 10.489 48.285 10.49L43.695 10.4875V39.555C43.695 45.9125 41.3225 50 36.0925 50H13.5475C8.3175 50 5.9825 45.935 5.9825 39.555V10.4875H1.715C1.25903 10.4855 0.822456 10.3028 0.500973 9.97946C0.179491 9.65611 -0.000664268 9.21847 1.84061e-06 8.7625C1.84061e-06 7.805 0.767502 7.0325 1.715 7.0325H15.39C15.425 5.7475 15.9025 4.445 16.775 3.1575C18.075 1.2375 20.105 0.185 22.8225 0ZM40.265 10.4875H9.41V39.555C9.41 44.275 10.71 46.54 13.5475 46.54H36.0925C38.94 46.54 40.2675 44.255 40.2675 39.555L40.265 10.4875ZM16.79 15.85C17.735 15.85 18.5025 16.625 18.5025 17.58V37.705C18.5035 37.9312 18.4599 38.1554 18.3743 38.3647C18.2886 38.5741 18.1626 38.7645 18.0033 38.9252C17.844 39.0858 17.6547 39.2135 17.4461 39.301C17.2375 39.3885 17.0137 39.434 16.7875 39.435C16.3311 39.4324 15.8944 39.2487 15.5733 38.9243C15.2522 38.5999 15.073 38.1614 15.075 37.705V17.58C15.075 16.625 15.845 15.85 16.79 15.85ZM23.605 15.85C24.555 15.85 25.32 16.625 25.32 17.58V37.705C25.321 37.9312 25.2774 38.1554 25.1918 38.3647C25.1061 38.5741 24.9801 38.7645 24.8208 38.9252C24.6615 39.0858 24.4722 39.2135 24.2636 39.301C24.055 39.3885 23.8312 39.434 23.605 39.435C23.1486 39.4324 22.7119 39.2487 22.3908 38.9243C22.0697 38.5999 21.8905 38.1614 21.8925 37.705V17.58C21.8925 16.625 22.66 15.85 23.605 15.85ZM30.425 15.85C31.37 15.85 32.1375 16.625 32.1375 17.58V37.705C32.1395 38.1614 31.9603 38.5999 31.6392 38.9243C31.3181 39.2487 30.8814 39.4324 30.425 39.435C30.1988 39.434 29.975 39.3885 29.7664 39.301C29.5578 39.2135 29.3685 39.0858 29.2092 38.9252C29.05 38.7645 28.9239 38.5741 28.8382 38.3647C28.7526 38.1554 28.709 37.9312 28.71 37.705V17.58C28.7087 17.1234 28.8885 16.6848 29.2099 16.3605C29.5314 16.0362 29.9684 15.8526 30.425 15.85ZM22.94 3.455C21.335 3.5675 20.2775 4.115 19.605 5.11C19.11 5.8375 18.8625 6.4675 18.8225 7.03L31.1675 7.0275C31.1325 6.3 30.845 5.66 30.2875 5.0475C29.4225 4.0975 28.4625 3.5825 27.555 3.46L22.94 3.455Z" fill="black"/>
</svg>
