<svg width="37" height="32" viewBox="0 0 37 32" fill="none" xmlns="http://www.w3.org/2000/svg">
<g clip-path="url(#clip0_183_248)">
<path d="M26.5781 0C23.1902 0 20.224 1.45687 18.375 3.91945C16.526 1.45687 13.5598 0 10.1719 0C7.47506 0.00303965 4.88957 1.07569 2.98263 2.98263C1.07569 4.88957 0.00303965 7.47506 0 10.1719C0 21.6562 17.028 30.952 17.7532 31.3359C17.9443 31.4388 18.158 31.4926 18.375 31.4926C18.592 31.4926 18.8057 31.4388 18.9968 31.3359C19.722 30.952 36.75 21.6562 36.75 10.1719C36.747 7.47506 35.6743 4.88957 33.7674 2.98263C31.8604 1.07569 29.2749 0.00303965 26.5781 0ZM18.375 28.6781C15.3792 26.9325 2.625 18.9804 2.625 10.1719C2.6276 8.17112 3.42356 6.25306 4.83831 4.83831C6.25306 3.42356 8.17112 2.6276 10.1719 2.625C13.3629 2.625 16.042 4.32469 17.1609 7.05469C17.2598 7.29541 17.428 7.50131 17.6442 7.64621C17.8604 7.79111 18.1148 7.86848 18.375 7.86848C18.6352 7.86848 18.8896 7.79111 19.1058 7.64621C19.322 7.50131 19.4902 7.29541 19.5891 7.05469C20.708 4.31977 23.3871 2.625 26.5781 2.625C28.5789 2.6276 30.4969 3.42356 31.9117 4.83831C33.3264 6.25306 34.1224 8.17112 34.125 10.1719C34.125 18.9673 21.3675 26.9309 18.375 28.6781Z" fill="black"/>
</g>
<defs>
<clipPath id="clip0_183_248">
<rect width="36.75" height="31.4926" fill="white"/>
</clipPath>
</defs>
</svg>
