<svg width="60" height="60" viewBox="0 0 60 60" fill="none" xmlns="http://www.w3.org/2000/svg">
<circle cx="30" cy="30" r="29.5" stroke="black"/>
<g clip-path="url(#clip0_443_443)">
<path d="M29.9997 29.8333C31.6149 29.8333 33.1938 29.3544 34.5368 28.457C35.8798 27.5596 36.9266 26.2842 37.5447 24.7919C38.1628 23.2997 38.3245 21.6576 38.0094 20.0734C37.6943 18.4893 36.9165 17.0341 35.7744 15.892C34.6322 14.7498 33.1771 13.972 31.5929 13.6569C30.0087 13.3418 28.3667 13.5035 26.8744 14.1217C25.3822 14.7398 24.1067 15.7865 23.2093 17.1295C22.312 18.4725 21.833 20.0515 21.833 21.6667C21.833 23.8326 22.6934 25.9098 24.225 27.4414C25.7565 28.9729 27.8337 29.8333 29.9997 29.8333ZM29.9997 15.8333C31.1534 15.8333 32.2812 16.1755 33.2405 16.8164C34.1998 17.4574 34.9475 18.3684 35.389 19.4344C35.8305 20.5003 35.946 21.6731 35.7209 22.8047C35.4958 23.9363 34.9403 24.9757 34.1245 25.7915C33.3087 26.6073 32.2693 27.1628 31.1377 27.3879C30.0061 27.613 28.8333 27.4975 27.7674 27.056C26.7015 26.6145 25.7904 25.8668 25.1494 24.9075C24.5085 23.9482 24.1663 22.8204 24.1663 21.6667C24.1663 20.1196 24.7809 18.6358 25.8749 17.5419C26.9688 16.4479 28.4526 15.8333 29.9997 15.8333Z" fill="black"/>
<path d="M44.548 38.4317C42.677 36.4542 40.4224 34.8791 37.922 33.8026C35.4215 32.7261 32.7278 32.1709 30.0055 32.1709C27.2832 32.1709 24.5895 32.7261 22.089 33.8026C19.5886 34.8791 17.334 36.4542 15.463 38.4317C15.0574 38.8649 14.8321 39.4365 14.833 40.03V46.1667C14.833 46.7855 15.0788 47.379 15.5164 47.8166C15.954 48.2542 16.5475 48.5 17.1663 48.5H42.833C43.4518 48.5 44.0453 48.2542 44.4829 47.8166C44.9205 47.379 45.1663 46.7855 45.1663 46.1667V40.03C45.1704 39.4381 44.9494 38.8667 44.548 38.4317ZM42.833 46.1667H17.1663V40.0183C18.8198 38.2773 20.8102 36.8909 23.0164 35.9435C25.2227 34.9961 27.5986 34.5076 29.9997 34.5076C32.4007 34.5076 34.7767 34.9961 36.9829 35.9435C39.1892 36.8909 41.1796 38.2773 42.833 40.0183V46.1667Z" fill="black"/>
</g>
<defs>
<clipPath id="clip0_443_443">
<rect width="42" height="42" fill="white" transform="translate(9 10)"/>
</clipPath>
</defs>
</svg>
