<svg width="40" height="40" viewBox="0 0 40 40" fill="none" xmlns="http://www.w3.org/2000/svg">
<path d="M36.8889 39.6944L22.8889 25.9082C21.7778 26.7835 20.5 27.4765 19.0556 27.9871C17.6111 28.4977 16.0741 28.753 14.4444 28.753C10.4074 28.753 6.99111 27.3758 4.19556 24.6215C1.4 21.8672 0.00148148 18.503 0 14.5291C0 10.5537 1.39852 7.18954 4.19556 4.43667C6.99259 1.6838 10.4089 0.306635 14.4444 0.305176C18.4815 0.305176 21.8978 1.68234 24.6933 4.43667C27.4889 7.191 28.8874 10.5551 28.8889 14.5291C28.8889 16.1338 28.6296 17.6474 28.1111 19.0698C27.5926 20.4922 26.8889 21.7504 26 22.8446L40 36.6308L36.8889 39.6944ZM14.4444 24.3764C17.2222 24.3764 19.5837 23.4187 21.5289 21.5032C23.4741 19.5877 24.4459 17.263 24.4444 14.5291C24.4444 11.7937 23.4719 9.46829 21.5267 7.5528C19.5815 5.63732 17.2207 4.6803 14.4444 4.68176C11.6667 4.68176 9.30519 5.6395 7.36 7.55499C5.41481 9.47048 4.44296 11.7952 4.44444 14.5291C4.44444 17.2644 5.41704 19.5899 7.36222 21.5054C9.30741 23.4208 11.6681 24.3779 14.4444 24.3764Z" fill="black"/>
</svg>
